<?xml version="1.0" encoding="UTF-8"?>
<svg id="Layer_1" data-name="Layer 1" xmlns="http://www.w3.org/2000/svg" viewBox="0 0 2314.23 926.48">
  <defs>
    <style>
      .cls-1 {
        fill: #fff;
      }
    </style>
  </defs>
  <path class="cls-1" d="M1306.56,395.67c12.77,6.25,25.39,12.69,38.74,17.72,82.68,31.16,176.03,19.45,230.59-54.79,60.64-82.51-.58-172.24-81.03-208.59-128.35-58-219.04,63.41-267.13,164.36-3.95,8.29-3.45,7.53,1.88,14.83,32.81,44.87,87.28,98.07,134.41,127.43,120.3,74.94,248.96,54.99,332.8-60.08l20.59-31.86c-13.51,61.91-57.48,118.54-111.64,150.67-59.76,35.46-138.8,45.18-206.43,30.85-86.36-18.3-159.57-78.69-220.24-139.55-27.87,44.29-53.75,88.4-92.45,124.39-106.5,99.04-281.3,128.69-403.77,40.84-94.45-67.75-113.38-179.49-73.83-285.39,50.91-136.34,231.57-175.59,345.95-93.49,44.88,32.21,84.02,74.07,121.64,114.22-.73,1.44-2.45-.16-3.31-.69-14.9-9.18-30.58-23.27-45.36-33.6-57.25-40.01-127.83-69.34-198.03-46.43-108.71,35.47-149.62,180.31-56.67,256.04,48.34,39.39,105.43,50.9,164.66,28.75,86.07-32.18,118.61-119.96,159.63-194.09l-.66-2.21c-45.62-52.15-91.42-108.86-153.19-142.68-53.74-29.43-123.34-45.6-184.15-33.14-68.56,14.05-124.51,66.08-160.78,123.57l-1.88-1.38c17.61-51.63,47.16-98.02,91.98-129.89,59.75-42.49,143.27-56.75,215.03-45.28,95.29,15.24,175.7,77.5,240.21,145.57,30.32-46.31,63.09-90.46,107.01-124.83,116.6-91.26,299.92-110.3,409.35,2.43,98.49,101.45,93.4,232.44-16.55,322.23-88.64,72.38-175.39,66.6-272.41,13.53-23.1-12.63-48.69-28.75-64.96-49.47Z"/>
  <polygon class="cls-1" points="2314.23 34.97 2314.23 596.49 2206.76 596.49 1940.35 330.72 1940.35 596.49 1789.4 596.49 1789.4 72.94 1896.87 72.94 2163.28 338.71 2163.28 73.44 2314.23 34.97"/>
  <polygon class="cls-1" points="606.8 0 606.8 174.85 390.87 174.85 390.87 607.48 215.93 650.44 215.93 174.85 0 174.85 0 0 606.8 0"/>
  <path class="cls-1" d="M1338.55,923.21v-202.83c33.28,2.18,71.3-4.03,103.8,2.66,66.05,13.6,75.25,109.16,48.67,159.22-30.62,57.67-98.82,37.03-152.47,40.94ZM1365.54,899.23c43.94-2.02,91.15,12.05,107.22-41.21,6.84-22.65,7.27-62.36-3.72-83.73-21.31-41.48-65.09-27.39-103.51-29.93v154.87Z"/>
  <path class="cls-1" d="M2011.13,717.69c77.13-6.38,118.18,58.78,104.85,129.77-19.38,103.16-163.83,105.78-188.32,5.02-14.93-61.4,15.37-129.16,83.48-134.79ZM2013.12,741.66c-54.05,5.55-70.16,60.94-59.1,107.44,17.04,71.6,118.85,71.35,134.82-1.79,11.6-53.17-13.53-112.03-75.72-105.65Z"/>
  <path class="cls-1" d="M447.86,778.34l-26.95.95c-2.55-34.32-35.08-42.15-64.25-36.65-20.94,3.95-39.47,25.12-23.29,44.71,10.41,12.61,58.71,19.48,76.28,25.67,31.5,11.1,53.32,35.6,41.24,70.76-14.46,42.09-69.78,48.68-107.22,38.14-30.53-8.59-49.82-32.8-50.77-64.66l24.96-1.95c2.43,39.72,44.48,53.12,78.38,44.79,20.67-5.08,40.18-24.91,26.81-46.52-17.78-28.76-94.02-17.11-116.32-57.59-16.05-29.14,1.27-61.72,30.64-72.62,44.51-16.52,108.9-1.08,110.49,54.97Z"/>
  <path class="cls-1" d="M1004.67,720.38l-.04,128.43c.77,36.71,19.95,54.47,56.57,52.46,35.27-1.93,45.56-20.41,47.48-53.46l-.04-127.43h26.99l.04,129.43c-1.31,53.95-33.98,79.37-86.56,76.44-49.06-2.73-68.87-29.29-71.47-76.44l.04-129.43h26.99Z"/>
  <polygon class="cls-1" points="792.74 720.38 792.74 744.36 725.76 744.36 725.76 923.21 698.77 923.21 698.77 744.36 631.79 744.36 631.79 720.38 792.74 720.38"/>
  <rect class="cls-1" x="1701.43" y="720.38" width="26.99" height="202.83"/>
</svg>