<svg width="301" height="82" viewBox="0 0 301 82" fill="none" xmlns="http://www.w3.org/2000/svg">
<path d="M301 79V3.83689C300.995 2.81918 300.582 1.84479 299.852 1.12609C299.122 0.407383 298.133 0.0026162 297.102 0L3.88758 0C2.85735 0.00263079 1.87008 0.407718 1.14159 1.1267C0.413105 1.84569 0.00266556 2.82009 0 3.83689V79H301Z" fill="url(#paint0_radial_149_2165)"/>
<path d="M91.6403 81.31C79.2903 81.31 70.5503 72.06 70.5503 59.89C70.5503 47.98 79.6303 38.1 91.6203 38.09C105.12 38.09 112.88 46.55 112.89 59.87C112.937 62.6824 112.421 65.4758 111.372 68.0857C110.323 70.6956 108.762 73.0692 106.782 75.067C104.802 77.0648 102.443 78.6463 99.8421 79.7185C97.2416 80.7906 94.453 81.3318 91.6403 81.31V81.31ZM93.3103 78.66C101.16 78.66 104.42 69.84 104.42 63.31C104.42 53.87 101.68 40.73 91.0003 40.74C82.0003 40.74 79.0003 48.95 79.0003 56.8C79.0003 65.35 82.5503 78.67 93.3103 78.66Z" fill="white"/>
<path d="M113 78.65C119.7 78.3 120 77.06 120 70.54V51.22C120 44.87 119.21 44.08 113 44.08V42.32C117.85 41.08 122.79 39.67 127.29 38.08H127.73V45.93C130.29 43.1 134.43 38.07 138.73 38.07C141.38 38.07 143.94 39.66 143.94 42.57C143.906 43.6602 143.442 44.6927 142.65 45.4421C141.857 46.1915 140.8 46.5969 139.71 46.57C138.586 46.5666 137.508 46.1212 136.71 45.33C136.107 44.6258 135.253 44.1845 134.33 44.1C131.15 44.1 127.71 49.75 127.71 50.19V70.71C127.71 77.71 128.71 78.65 135.21 78.65V80.41H113V78.65Z" fill="white"/>
<path d="M147.5 78.64C152 78.64 153.85 77.93 153.85 72.73V48.73C153.85 45.38 152.53 43.88 148.47 43.88H147.47V42.13C152.32 41.33 157.26 39.48 161.58 38.06V44.94C165.73 41.68 169.78 38.06 175.34 38.06C182.34 38.06 186.45 41.85 186.46 52.52V72.72C186.46 77.92 188.31 78.62 192.81 78.62V80.39H172.2V78.63C176.88 78.63 178.73 77.92 178.73 72.72V52.26C178.73 45.99 175.46 43.53 170.96 43.53C167.35 43.53 164.26 45.65 161.61 47.94V72.73C161.61 77.93 163.47 78.63 168.14 78.63V80.4H147.51L147.5 78.64Z" fill="white"/>
<path d="M193.49 42.11C198.49 41.31 203.49 39.46 207.78 38.04V72.71C207.78 77.91 209.63 78.62 214.31 78.61V80.38H193.5V78.62C198.18 78.62 200.03 77.91 200.03 72.71V48.71C200.03 45.36 198.7 43.86 194.65 43.86H193.5L193.49 42.11Z" fill="white"/>
<path d="M214.66 78.61C219.16 78.61 221.01 77.91 221.01 72.7V48.7C221.01 45.35 219.68 43.85 215.62 43.85H214.62V42.1C219.47 41.3 224.41 39.45 228.73 38.04V44.92C232.9 41.65 237 38 242.51 38C249.51 38 253.63 41.79 253.63 52.46V72.66C253.63 77.86 255.48 78.57 259.98 78.57V80.33H239.35V78.6C244.03 78.6 245.88 77.9 245.88 72.69V52.23C245.88 45.97 242.61 43.5 238.11 43.5C234.5 43.5 231.41 45.62 228.77 47.91V72.7C228.77 77.9 230.62 78.61 235.3 78.61V80.37H214.66V78.61Z" fill="white"/>
<path d="M300.91 44.53H291.82C293.056 47.0275 293.777 49.7481 293.94 52.53C293.94 61.79 287.15 67.88 277.89 67.88C276.179 67.911 274.469 67.8241 272.77 67.62C271.905 67.7696 271.124 68.2284 270.572 68.9108C270.02 69.5933 269.735 70.453 269.77 71.33C269.77 74.68 271.77 75.33 280.77 75.73C287.21 76 297.5 79.0002 297.5 79.0002C297.5 79.0002 274.485 79.0002 264.515 79.0002C263.935 78.1056 263.618 77.066 263.6 76C263.6 72.73 268.01 68.5 270.3 66.56C265.1 63.16 263 59.28 263 53.1C263 45.1 270.4 38.02 278.34 38.01C286.1 38.01 287.78 41.1 288.39 41.27H300.93L300.91 44.53ZM264.515 79.0002C269.275 79.0002 297.5 79.0002 297.5 79.0002C297.5 79.0002 288.625 78.9902 264.515 79.0002ZM270.74 50C270.74 55.21 272.68 65.26 279.48 65.26C284.59 65.26 286.18 59.88 286.18 55.73C286.18 50.73 284.18 40.65 277.53 40.65C275.85 40.66 270.73 41.19 270.74 50Z" fill="white"/>
<path d="M15.1402 45.34C18.2002 42.2667 20.0102 40.5033 20.5702 40.05C21.8943 38.9155 23.3894 37.9975 25.0002 37.33C26.5015 36.6958 28.1107 36.3563 29.7402 36.33C32.2145 36.2738 34.6294 37.0917 36.5602 38.64C38.566 40.3551 39.9158 42.712 40.3802 45.31C43.5402 41.63 46.2069 39.2133 48.3802 38.06C50.443 36.9372 52.7517 36.3429 55.1002 36.33C57.2289 36.288 59.3206 36.8911 61.1002 38.06C63.0236 39.4688 64.463 41.4392 65.2202 43.7C66.0156 46.4186 66.3535 49.2505 66.2202 52.08V70.24C66.1169 72.074 66.3197 73.9125 66.8202 75.68C67.1874 76.421 67.7835 77.0241 68.5202 77.4C69.7756 77.9603 71.1482 78.2074 72.5202 78.12V79.77H51.7802V78.12H52.6502C54.138 78.2016 55.6158 77.8321 56.8902 77.06C57.6531 76.4775 58.1874 75.6459 58.4002 74.71C58.5819 73.2274 58.6454 71.7327 58.5902 70.24V52.11C58.5902 48.67 58.1702 46.25 57.3502 44.83C56.7495 43.8613 55.8953 43.0753 54.88 42.5571C53.8648 42.0389 52.7271 41.8082 51.5902 41.89C49.8844 41.9112 48.2068 42.3289 46.6902 43.11C44.4844 44.3261 42.4639 45.8516 40.6902 47.64L40.6002 48.15L40.6902 50.15V70.24C40.6902 73.13 40.8502 74.92 41.1702 75.63C41.5625 76.41 42.2076 77.0339 43.0002 77.4C44.4466 77.9802 46.0054 78.2264 47.5602 78.12V79.77H26.2702V78.12C28.6102 78.12 30.2102 77.84 31.0802 77.29C31.9739 76.7136 32.6223 75.8265 32.9002 74.8C33.1223 73.2908 33.1993 71.7638 33.1302 70.24V52.11C33.1302 48.67 32.6269 46.2 31.6202 44.7C31.0153 43.7523 30.1749 42.9776 29.181 42.4518C28.1872 41.926 27.074 41.6669 25.9502 41.7C24.2083 41.7313 22.5037 42.2099 21.0002 43.09C18.754 44.2001 16.7516 45.7469 15.1102 47.64V70.24C15.1102 73.01 15.3002 74.8 15.6802 75.63C16.0261 76.4206 16.6238 77.0746 17.3802 77.49C18.8438 78.0269 20.406 78.2418 21.9602 78.12V79.77H1.1402V78.12C2.52041 78.2176 3.90484 78.0022 5.1902 77.49C5.98754 77.0461 6.60608 76.3392 6.9402 75.49C7.44895 73.7824 7.65207 71.9983 7.5402 70.22V54.13C7.63561 51.1236 7.49518 48.1144 7.1202 45.13C7.02694 44.339 6.67546 43.6009 6.1202 43.03C5.58009 42.6247 4.9144 42.4229 4.2402 42.46C3.17721 42.5032 2.13061 42.7369 1.1502 43.15L0.450195 41.52L13.1602 36.36H15.1602L15.1402 45.34Z" fill="white"/>
<path d="M208 33.2C208 34.0663 207.743 34.9131 207.262 35.6334C206.781 36.3537 206.097 36.9151 205.296 37.2466C204.496 37.5781 203.615 37.6649 202.766 37.4959C201.916 37.3269 201.136 36.9097 200.523 36.2971C199.911 35.6846 199.493 34.9042 199.324 34.0545C199.155 33.2049 199.242 32.3242 199.574 31.5239C199.905 30.7235 200.467 30.0395 201.187 29.5582C201.907 29.0769 202.754 28.82 203.62 28.82C204.196 28.8187 204.766 28.9311 205.298 29.1507C205.83 29.3704 206.313 29.693 206.72 30.1C207.127 30.5069 207.45 30.9903 207.67 31.5223C207.889 32.0543 208.002 32.6245 208 33.2V33.2Z" fill="white"/>
<path d="M21.9904 79.11H2.40039V79.56H21.9904V79.11Z" fill="white"/>
<path d="M47.6 79.11H26.29V79.56H47.6V79.11Z" fill="white"/>
<path d="M72.5803 79.11H51.7803V79.56H72.5803V79.11Z" fill="white"/>
<path d="M100.92 79.11H82.2402V79.56H100.92V79.11Z" fill="white"/>
<path d="M135.17 79.11H112.95V79.56H135.17V79.11Z" fill="white"/>
<path d="M168.15 79.11H147.53V79.56H168.15V79.11Z" fill="white"/>
<path d="M192.84 79.11H172.22V79.56H192.84V79.11Z" fill="white"/>
<path d="M214.32 79.1H193.53V79.55H214.32V79.1Z" fill="white"/>
<path d="M235.29 79.09H214.69V79.54H235.29V79.09Z" fill="white"/>
<path d="M259.99 79.09H239.35V79.54H259.99V79.09Z" fill="white"/>
<path d="M299 80H281.5H265L264.5 79H297.5L299 80Z" fill="white"/>
<path d="M12.7504 6.78998V16.35C13.4664 15.481 14.3132 14.7287 15.2604 14.12C15.8301 13.8047 16.4693 13.6363 17.1204 13.63C17.8082 13.6082 18.4825 13.8236 19.0304 14.24C19.6214 14.7411 20.038 15.4169 20.2204 16.17C20.4467 17.2681 20.5374 18.3898 20.4904 19.51V24.14C20.4576 24.714 20.5253 25.2893 20.6904 25.84C20.7775 26.0735 20.9487 26.2661 21.1704 26.38C21.5694 26.5427 22.0006 26.6112 22.4304 26.58V27.09H16.0004V26.58H16.3004C16.7427 26.6241 17.1876 26.526 17.5704 26.3C17.8272 26.093 18.004 25.8031 18.0704 25.48C18.1162 25.0349 18.1329 24.5873 18.1204 24.14V19.51C18.1632 18.5678 18.0893 17.624 17.9004 16.7C17.7794 16.298 17.53 15.9467 17.1904 15.7C16.8396 15.4637 16.423 15.3446 16.0004 15.36C15.4917 15.3688 14.9919 15.4954 14.5404 15.73C13.8526 16.1183 13.2397 16.6263 12.7304 17.23V24.14C12.6931 24.7011 12.7437 25.2645 12.8804 25.81C12.9995 26.0514 13.1969 26.2453 13.4404 26.36C13.8835 26.5415 14.363 26.6168 14.8404 26.58V27.09H8.38039V26.58C8.85217 26.6021 9.32228 26.5095 9.75039 26.31C9.9608 26.1904 10.1207 25.9985 10.2004 25.77C10.3548 25.2413 10.4158 24.6896 10.3804 24.14V12.3C10.4081 11.3785 10.3714 10.4563 10.2704 9.53998C10.2379 9.27742 10.1223 9.03213 9.94039 8.83998C9.77107 8.71235 9.56212 8.6486 9.35039 8.65998C9.00789 8.68256 8.67075 8.75673 8.35039 8.87998L8.15039 8.38998L12.0604 6.78998H12.7504Z" fill="white" stroke="white" stroke-width="0.3" stroke-miterlimit="10"/>
<path d="M25.7304 18.94C25.6241 20.5847 26.1259 22.2111 27.1404 23.51C27.5418 24.0191 28.0517 24.4323 28.6329 24.7194C29.2142 25.0066 29.8521 25.1605 30.5004 25.17C31.3047 25.1852 32.0917 24.9358 32.7404 24.46C33.4926 23.8071 34.044 22.954 34.3304 22L34.7704 22.28C34.5571 23.634 33.9402 24.8922 33.0004 25.89C32.5519 26.4073 31.9951 26.8197 31.3696 27.0979C30.744 27.3761 30.0649 27.5134 29.3804 27.5C28.6206 27.4985 27.8701 27.3334 27.1798 27.0159C26.4896 26.6984 25.8759 26.2359 25.3804 25.66C24.2046 24.2914 23.6028 22.5216 23.7004 20.72C23.589 18.8215 24.2039 16.9518 25.4204 15.49C25.9619 14.8832 26.6285 14.4009 27.3743 14.0764C28.12 13.7518 28.9272 13.5927 29.7404 13.61C30.4111 13.5892 31.0789 13.7073 31.7018 13.9568C32.3248 14.2064 32.8894 14.5819 33.3604 15.06C33.8416 15.5805 34.2142 16.1917 34.4563 16.8579C34.6984 17.5242 34.8052 18.232 34.7704 18.94H25.7304ZM25.7304 18.11H31.7904C31.7845 17.5079 31.6832 16.9104 31.4904 16.34C31.262 15.826 30.8906 15.3886 30.4204 15.08C29.9815 14.7889 29.467 14.6324 28.9404 14.63C28.5431 14.6316 28.1503 14.714 27.7858 14.8722C27.4214 15.0303 27.0929 15.2609 26.8204 15.55C26.1624 16.2454 25.7756 17.1537 25.7304 18.11V18.11Z" fill="white" stroke="white" stroke-width="0.3" stroke-miterlimit="10"/>
<path d="M4.58039 9.47002V13.77H7.63039V14.77H4.63039V23.25C4.54455 23.8515 4.65317 24.4646 4.94039 25C5.05002 25.1444 5.19248 25.2605 5.35596 25.3387C5.51944 25.417 5.69922 25.4551 5.88039 25.45C6.20703 25.4441 6.52425 25.3395 6.79039 25.15C7.09831 24.9382 7.33528 24.6385 7.47039 24.29H8.00039C7.74153 25.1136 7.25224 25.8458 6.59039 26.4C6.05751 26.8401 5.39136 27.0868 4.70039 27.1C4.24946 27.0949 3.8079 26.9707 3.42039 26.74C3.01173 26.5143 2.68588 26.164 2.49039 25.74C2.25556 25.066 2.15368 24.3528 2.19039 23.64V14.77H0.150391V14.3C0.745519 14.0403 1.29045 13.6781 1.76039 13.23C2.32197 12.706 2.81278 12.111 3.22039 11.46C3.56694 10.8139 3.87092 10.1458 4.13039 9.46002L4.58039 9.47002Z" fill="white" stroke="white" stroke-width="0.3" stroke-miterlimit="10"/>
<defs>
<radialGradient id="paint0_radial_149_2165" cx="0" cy="0" r="1" gradientUnits="userSpaceOnUse" gradientTransform="translate(148.556 36.5152) scale(149.748 147.795)">
<stop stop-color="#E30613"/>
<stop offset="0.32" stop-color="#D20910"/>
<stop offset="0.96" stop-color="#A61009"/>
<stop offset="1" stop-color="#A31008"/>
</radialGradient>
</defs>
</svg>
